<?xml version="1.0" encoding="UTF-8" standalone="no"?>
<svg width="284px" height="109px" viewBox="0 0 284 109" version="1.1" xmlns="http://www.w3.org/2000/svg" xmlns:xlink="http://www.w3.org/1999/xlink" xmlns:sketch="http://www.bohemiancoding.com/sketch/ns">
    <!-- Generator: Sketch 3.0.4 (8053) - http://www.bohemiancoding.com/sketch -->
    <title>BDO_logo_black_290709</title>
    <desc>Created with Sketch.</desc>
    <defs></defs>
    <g id="Page-1" stroke="none" stroke-width="1" fill="none" fill-rule="evenodd" sketch:type="MSPage">
        <g id="BDO_logo_black_290709" sketch:type="MSLayerGroup" fill="#1A1918">
            <path d="M53.771,13.701 L71.098,13.701 C75.855,13.701 81.877,14.836 81.877,22.914 C81.877,30.994 73.267,34.287 66.88,34.287 L53.771,34.287 L53.771,13.701 L53.771,13.701 Z M53.771,45.266 L63.643,45.266 C79.867,45.266 88.136,48.811 88.136,58.305 C88.136,66.72 81.503,70.278 71.101,70.278 L55.304,70.278 L37.239,82.927 L37.239,82.928 L70.977,82.92 C91.182,82.92 104.785,75.646 104.785,58.813 C104.785,44.13 92.745,38.364 82.002,38.364 C89.427,38.364 98.2,31.71 98.2,20.428 C98.2,9.148 87.883,1.049 76.12,1.049 L41.684,1.05 L34.216,1.05 L37.239,7.755 L37.239,77.037 L53.771,65.459 L53.771,45.266 L53.771,45.266 Z" id="Fill-3" sketch:type="MSShapeGroup"></path>
            <path d="M131.992,13.701 L143.252,13.701 C147.898,13.701 171.592,14.876 171.592,41.989 C171.592,72.925 143.252,70.272 143.252,70.272 L133.529,70.276 L115.458,82.926 L115.458,82.928 L147.898,82.928 C168.102,82.928 188.816,70.502 188.816,41.989 C188.816,16.709 170.729,1.05 147.898,1.05 L112.437,1.05 L115.458,7.755 L115.458,77.034 L131.992,65.459 L131.992,13.701" id="Fill-4" sketch:type="MSShapeGroup"></path>
            <path d="M213.68,41.988 C213.68,18.836 229.631,12.331 239.965,12.331 C250.297,12.331 266.248,18.836 266.248,41.988 C266.248,65.141 250.297,71.644 239.965,71.644 C229.631,71.644 213.68,65.141 213.68,41.988 L213.68,41.988 Z M196.455,41.988 C196.455,74.656 222.857,83.832 239.965,83.832 C257.068,83.832 283.473,74.656 283.473,41.988 C283.473,9.321 257.068,0.143 239.965,0.143 C222.857,0.143 196.455,9.321 196.455,41.988 L196.455,41.988 Z" id="Fill-5" sketch:type="MSShapeGroup"></path>
            <path d="M0,1.05 L0,103.117 L16.148,91.807 L16.148,1.05 L0,1.05" id="Fill-7" sketch:type="MSShapeGroup"></path>
            <path d="M19.168,95.582 L0,109 L282.566,109 L282.566,95.582 L19.168,95.582" id="Fill-8" sketch:type="MSShapeGroup"></path>
        </g>
    </g>
</svg>